<?xml version="1.0" encoding="utf-8"?>
<!-- Generator: Adobe Illustrator 23.0.3, SVG Export Plug-In . SVG Version: 6.00 Build 0)  -->
<svg version="1.1" id="a622e68e-7a65-46e9-94a9-d455de519afc"
	 xmlns="http://www.w3.org/2000/svg" xmlns:xlink="http://www.w3.org/1999/xlink" x="0px" y="0px" viewBox="0 0 971.44 502"
	 style="enable-background:new 0 0 971.44 502;" xml:space="preserve">
<style type="text/css">
	.st0{opacity:0.7;}
	.st1{fill:url(#SVGID_1_);}
	.st2{fill:#BDBDBD;}
	.st3{opacity:0.1;}
	.st4{fill:#535461;}
	.st5{opacity:0.5;}
	.st6{fill:url(#SVGID_2_);}
	.st7{fill:none;stroke:#FFFFFF;stroke-miterlimit:10;}
	.st8{fill:url(#SVGID_3_);}
	.st9{opacity:0.6;fill:none;stroke:#535461;stroke-width:3;stroke-miterlimit:10;enable-background:new    ;}
	.st10{fill:#0D2EB3;}
	.st11{fill:#4DB6AC;}
	.st12{opacity:0.3;fill:none;stroke:#535461;stroke-miterlimit:10;enable-background:new    ;}
	.st13{fill:#E0E0E0;}
	.st14{opacity:0.1;enable-background:new    ;}
	.st15{fill:url(#SVGID_4_);}
	.st16{fill:#3AD29F;}
	.st17{fill:#4D8AF0;}
	.st18{fill:#F55F44;}
</style>
<title>responsive</title>
<g class="st0">
	
		<linearGradient id="SVGID_1_" gradientUnits="userSpaceOnUse" x1="599.5" y1="-164.06" x2="599.5" y2="305" gradientTransform="matrix(1 0 0 -1 -114.28 305)">
		<stop  offset="0" style="stop-color:#808080;stop-opacity:0.25"/>
		<stop  offset="0.54" style="stop-color:#808080;stop-opacity:0.12"/>
		<stop  offset="1" style="stop-color:#808080;stop-opacity:0.1"/>
	</linearGradient>
	<path class="st1" d="M738.41,0H232.03c-9.037,0.033-16.338,7.383-16.31,16.42v348.52c-0.028,9.037,7.273,16.387,16.31,16.42h174.16
		v60.16h-7.94c-4.584,0.017-8.287,3.746-8.27,8.33c0,0,0,0,0,0v12.07h16.21v7.14h158.06v-7.14h16.21v-12.07
		c0.017-4.584-3.686-8.313-8.27-8.33c0,0,0,0,0,0h-7.47V441h-0.51v-59.64h174.2c9.037-0.033,16.338-7.383,16.31-16.42V16.42
		C754.748,7.383,747.447,0.033,738.41,0z"/>
</g>
<rect x="407.72" y="371" class="st2" width="156" height="92"/>
<g class="st3">
	<path d="M410.79,380h150.17c1.81-7.87,3.26-13,3.26-13h-157C407.22,367,408.83,372.11,410.79,380z"/>
</g>
<path class="st4" d="M235.82,3h499.8c8.892,0,16.1,7.208,16.1,16.1V327l0,0h-532l0,0V19.1C219.72,10.208,226.928,3,235.82,3
	C235.82,3,235.82,3,235.82,3z"/>
<path class="st2" d="M735.62,377h-499.8c-8.892,0-16.1-7.208-16.1-16.1V327h532v33.9C751.72,369.792,744.512,377,735.62,377z"/>
<circle class="st4" cx="485.72" cy="352" r="9"/>
<path class="st2" d="M399.89,436h171.66c4.512,0,8.17,3.658,8.17,8.17V456l0,0h-188l0,0v-11.83
	C391.72,439.658,395.378,436,399.89,436C399.89,436,399.89,436,399.89,436z"/>
<g class="st5">
	
		<linearGradient id="SVGID_2_" gradientUnits="userSpaceOnUse" x1="485.72" y1="245.12" x2="485.72" y2="432.88" gradientTransform="matrix(1 0 0 -1 0 504)">
		<stop  offset="0" style="stop-color:#808080;stop-opacity:0.25"/>
		<stop  offset="0.54" style="stop-color:#808080;stop-opacity:0.12"/>
		<stop  offset="1" style="stop-color:#808080;stop-opacity:0.1"/>
	</linearGradient>
	<path class="st6" d="M325.22,71.12h321c2.485,0,4.5,2.015,4.5,4.5v178.76c0,2.485-2.015,4.5-4.5,4.5h-321
		c-2.485,0-4.5-2.015-4.5-4.5V75.62C320.72,73.135,322.735,71.12,325.22,71.12z"/>
</g>
<circle class="st7" cx="485.72" cy="46" r="4"/>
<circle class="st7" cx="485.72" cy="46" r="4"/>
<g class="st3">
	<rect x="408.22" y="435.5" width="156" height="3"/>
</g>
<g class="st0">
	
		<linearGradient id="SVGID_3_" gradientUnits="userSpaceOnUse" x1="132.0019" y1="-10.9564" x2="302.99" y2="-10.9564" gradientTransform="matrix(1 0 0 -1 -114.28 305)">
		<stop  offset="0" style="stop-color:#808080;stop-opacity:0.25"/>
		<stop  offset="0.54" style="stop-color:#808080;stop-opacity:0.12"/>
		<stop  offset="1" style="stop-color:#808080;stop-opacity:0.1"/>
	</linearGradient>
	<path class="st8" d="M179.2,367.06h-72.4l1-8.14c20.46-18.37,33.69-67.31,33.69-67.31c-0.294,0.041-0.584,0.101-0.87,0.18
		c-12,2.42-20.54,7.35-26.51,13.28l2.54-21.66c37.8-8.14,52.79-58.14,52.79-58.14c-24.12,5.35-39.16,13.63-48.5,21.49l3.72-31.82
		c25.56,8.77,52-37.82,52-37.82l-1-0.21l0.5-0.32l-0.76,0.27c-28.25-6.09-43.35,10.06-48.25,16.77l0.37-3.12
		c-0.747,2-1.473,3.96-2.18,5.88l0,0v0.08c-2,5.42-3.83,10.773-5.49,16.06l0,0l0,0c-1.447,4.513-2.8,8.98-4.06,13.4v-0.06
		c0,0-1.17-28.46-31.18-35.95c0,0,3.15,62.07,26.93,51.91l0,0c-2.2,9-4,17.66-5.56,26.07l0,0c-0.993,5.473-1.86,10.807-2.6,16
		l-0.14,0.16l0.14-0.12l-0.06,0.41l0,0l0,0c-0.667,4.713-1.233,9.307-1.7,13.78c0.46-8.62-1.11-33.52-30.45-56.92
		c0,0-39,68.54,27.5,82c0.15,0.13,0.3,0.26,0.44,0.38l-0.1-0.31l0.6,0.13l0.27-3.52c-0.802,14.691-0.725,29.418,0.23,44.1l0,0
		c0.07,1,0.14,2,0.21,2.95H27.09c-27.94,57.79,15.52,89.46,15.52,89.46h120C209.21,397.66,179.2,367.06,179.2,367.06z M101.2,301.38
		L101.2,301.38L101.2,301.38z"/>
</g>
<path class="st9" d="M102.72,389c0,0-19-83,23-190"/>
<path class="st10" d="M28.72,364h147c0,0,29,37-16,92h-116C43.72,456,1.72,418,28.72,364z"/>
<path class="st11" d="M123.61,204.5c0,0,14.61-26,49.61-18c0,0-28.93,49.26-55,33.13L123.61,204.5z"/>
<path class="st11" d="M114.35,232.09c0,0-1.13-26.59-30.13-33.59c0,0,3,58,26,48.5L114.35,232.09z"/>
<path class="st11" d="M104.87,271.36c0,0,5.35-27.86,61.35-39.86c0,0-17.86,57.62-63.93,55.31L104.87,271.36z"/>
<path class="st11" d="M100.33,302.63c0,0,5.89-29.13-29.11-56.13c0,0-38,64.67,27.48,76.83L100.33,302.63z"/>
<path class="st11" d="M99.28,342.67c0,0-4.06-41.17,39.94-49.17c0,0-16.07,57.49-40,67.74L99.28,342.67z"/>
<path class="st12" d="M118.72,220c0,0,38-29,54-34"/>
<path class="st12" d="M102.22,286.5c0,0,46-49,64-55"/>
<path class="st12" d="M84.22,198.5c0,0,28,38,26,48"/>
<path class="st12" d="M71.22,246.5c0,0,15,68,27,77"/>
<path class="st12" d="M99.22,361.5c0,0,24-66,40-68"/>
<g class="st3">
	<path d="M175.72,364h-147c-0.33,0.67-0.65,1.34-1,2h143c0,0,28.29,36.11-14.4,90h3.4C204.72,401,175.72,364,175.72,364z"/>
</g>
<rect y="455.6" class="st13" width="971.44" height="32.93"/>
<rect x="41.16" y="488.53" class="st13" width="889.11" height="13.47"/>
<rect x="41.16" y="488.53" class="st14" width="889.11" height="4.49"/>
<g class="st0">
	
		<linearGradient id="SVGID_4_" gradientUnits="userSpaceOnUse" x1="933" y1="-64.2751" x2="1030.96" y2="-64.2751" gradientTransform="matrix(1 0 0 -1 -114.28 305)">
		<stop  offset="0" style="stop-color:#808080;stop-opacity:0.25"/>
		<stop  offset="0.54" style="stop-color:#808080;stop-opacity:0.12"/>
		<stop  offset="1" style="stop-color:#808080;stop-opacity:0.1"/>
	</linearGradient>
	<path class="st15" d="M912.72,444.88l0.1-0.15c0.207-0.32,0.41-0.653,0.61-1l0.11-0.19c0.193-0.327,0.377-0.66,0.55-1l0.09-0.17
		c0.2-0.39,0.39-0.78,0.56-1.19l0,0c0.36-0.818,0.674-1.656,0.94-2.51l0.1-0.33c0.09-0.31,0.18-0.62,0.26-0.93l0.1-0.44
		c0.067-0.28,0.127-0.563,0.18-0.85c0-0.16,0.06-0.32,0.09-0.48s0.09-0.56,0.13-0.85s0-0.33,0.06-0.49s0.06-0.61,0.08-0.92
		c0-0.14,0-0.29,0-0.43c0-0.45,0-0.91,0-1.36V349h-13.85v-40.48h-17V349h-11.72v-58.14h-17V349h-6.39v-66.45h-17V349h-15v82.6
		c0,13.48,11.21,24.4,25,24.4h48c7.957,0.032,15.461-3.698,20.24-10.06l0,0C912.207,445.587,912.46,445.233,912.72,444.88z"/>
</g>
<rect x="835.72" y="321" class="st4" width="16" height="100"/>
<rect x="835.72" y="288" class="st16" width="16" height="33"/>
<rect x="857.72" y="329" class="st4" width="16" height="100"/>
<rect x="857.72" y="296" class="st17" width="16" height="33"/>
<rect x="884.72" y="346" class="st4" width="16" height="100"/>
<rect x="884.72" y="313" class="st18" width="16" height="33"/>
<path class="st10" d="M821.72,352h92l0,0v79.5c0,12.979-10.521,23.5-23.5,23.5h-45c-12.979,0-23.5-10.521-23.5-23.5V352L821.72,352z
	"/>
<g class="st3">
	<path d="M821.72,352v4h88v79.5c0.008,5.255-1.753,10.359-5,14.49c5.687-4.449,9.006-11.27,9-18.49V352H821.72z"/>
</g>
<g>
	<defs>
		<path id="SVGID_5_" d="M270.636,37.882h430.168c3.421,0,6.194,2.773,6.194,6.194v240.808c0,3.421-2.773,6.194-6.194,6.194H270.636
			c-3.421,0-6.194-2.773-6.194-6.194V44.076C264.443,40.655,267.215,37.882,270.636,37.882z"/>
	</defs>
	<clipPath id="SVGID_6_">
		<use xlink:href="#SVGID_5_"  style="overflow:visible;"/>
	</clipPath>
	<g style="clip-path:url(#SVGID_6_);">
		
			<image style="overflow:visible;" width="1903" height="935" xlink:href="C:\Users\mahmoud\Desktop\Untitled-1.jpg"  transform="matrix(0.2744 0 0 0.2744 254.3469 39.4822)">
		</image>
	</g>
</g>
</svg>
