<?xml version="1.0" encoding="utf-8"?>
<!-- Generator: Adobe Illustrator 26.0.2, SVG Export Plug-In . SVG Version: 6.00 Build 0)  -->
<svg version="1.1" id="Layer_1" xmlns="http://www.w3.org/2000/svg" xmlns:xlink="http://www.w3.org/1999/xlink" x="0px" y="0px"
	 viewBox="0 0 934 618.5" style="enable-background:new 0 0 934 618.5;" xml:space="preserve">
<style type="text/css">
	.st0{opacity:0.5;fill:#3F51B5;enable-background:new    ;}
	.st1{fill:url(#SVGID_1_);}
	.st2{fill:#2F2E41;}
	.st3{fill:#EDEDF4;}
	.st4{fill:#FA595F;}
	.st5{fill:#FFC74C;}
	.st6{fill:#85D459;}
	.st7{fill:#FFFFFF;}
	.st8{fill:none;stroke:#3F51B5;stroke-miterlimit:10;}
	.st9{fill:none;stroke:#3F51B5;stroke-miterlimit:10;stroke-dasharray:11.69,11.69;}
	.st10{fill:none;stroke:#3F51B5;stroke-miterlimit:10;stroke-dasharray:11.79,11.79;}
	.st11{opacity:0.1;}
	.st12{fill:url(#SVGID_00000129200988051797508230000000527373613497328024_);}
	.st13{fill:url(#SVGID_00000076562909023237299420000010695527642497297828_);}
	.st14{fill:url(#SVGID_00000161619277301038539450000001467480858131974033_);}
	.st15{opacity:0.6;}
	.st16{opacity:0.3;fill:#3F51B5;enable-background:new    ;}
	.st17{opacity:0.4;fill:#FFFFFF;enable-background:new    ;}
	.st18{opacity:0.1;fill:#252223;enable-background:new    ;}
	.st19{fill:url(#SVGID_00000144326866416497184810000005625874534282228135_);}
	.st20{fill:url(#SVGID_00000060007399670523147340000010645410187787856271_);}
	.st21{fill:url(#SVGID_00000011009838491037841320000002707646172116288947_);}
	.st22{fill:#F2F2F2;}
	.st23{fill:#F7BBC3;}
	.st24{opacity:0.1;enable-background:new    ;}
	.st25{fill:#0D2EB3;}
	.st26{fill:#B77983;}
	.st27{fill:#D39999;}
	.st28{fill:#74585E;}
	.st29{fill:none;stroke:#535461;stroke-width:2;stroke-miterlimit:10;}
	.st30{fill:#3F51B5;}
	.st31{fill:#DDE1EC;}
	.st32{fill:none;stroke:#FFFFFF;stroke-miterlimit:10;}
	.st33{fill:#3697D3;}
	.st34{font-family:'OpenSans';}
	.st35{font-size:4.3505px;}
	.st36{font-family:'OpenSans-Bold';}
	.st37{font-size:11.1421px;}
	.st38{font-family:'OpenSans-Extrabold';}
	.st39{opacity:0.8;fill:#59C6F2;enable-background:new    ;}
	.st40{opacity:0.2;}
	.st41{fill:#34324F;}
</style>
<path class="st0" d="M101,402.5c-22.9,1-47.4,5.8-63.4,22.3C11,452.3,22.1,502.2,52.8,525.1s73,23.6,110.1,14.1
	c19.9-5.1,40.5-12.9,60.5-8.2c25.3,5.9,42.8,30.3,67.8,37.1c33.6,9.2,65.8-15.5,98.2-28.5c55.3-22.1,123.3-7.6,164.8,35.2
	c11.6,11.9,21.5,26.1,35.9,34.3c14.6,8.3,32.1,9.6,48.9,9.4c50.5-0.4,100.2-11.6,149.4-22.7c31.3-7,63.1-14.3,90.7-30.5
	s50.9-43.1,54.5-75c0.6-5.5,0.6-11.4-1.8-16.4c-4.1-8.3-13.5-12.3-22.2-15.5c-25.8-9.7-54.7-19.3-80-8.4c-6.6,2.9-12.8,7.1-19.9,8.6
	c-20.2,4.2-36.7-14.7-52.5-28c-48.7-41.3-119.7-37.5-181.9-52.3C503,361.1,426.1,347.1,350.8,358c-37.9,5.5-67,31.2-103.2,41.2
	C199.9,412.3,149.6,400.5,101,402.5z"/>
<linearGradient id="SVGID_1_" gradientUnits="userSpaceOnUse" x1="405.95" y1="658.1" x2="405.95" y2="172" gradientTransform="matrix(1 0 0 1 0 -172)">
	<stop  offset="0" style="stop-color:#808080;stop-opacity:0.25"/>
	<stop  offset="0.54" style="stop-color:#808080;stop-opacity:0.12"/>
	<stop  offset="1" style="stop-color:#808080;stop-opacity:0.1"/>
</linearGradient>
<polygon class="st1" points="127.8,0 127.8,26.9 127.8,486.1 684.1,486.1 684.1,26.9 684.1,0 "/>
<rect x="131.4" class="st2" width="549.2" height="15.6"/>
<rect x="131.4" y="15.1" class="st3" width="549.2" height="460.4"/>
<circle class="st4" cx="141.6" cy="7.6" r="2.7"/>
<circle class="st5" cx="149.6" cy="7.6" r="2.7"/>
<circle class="st6" cx="157.6" cy="7.6" r="2.7"/>
<rect x="285.8" y="48.5" class="st7" width="319.2" height="125.3"/>
<polyline class="st8" points="616.5,201.4 616.5,207.4 610.5,207.4 "/>
<line class="st9" x1="591.6" y1="173.7" x2="294.8" y2="173.7"/>
<polyline class="st8" points="290.3,173.7 285.8,173.7 285.8,169.2 "/>
<line class="st10" x1="285.8" y1="160.2" x2="285.8" y2="57.5"/>
<polyline class="st8" points="285.8,53 285.8,48.5 290.3,48.5 "/>
<line class="st9" x1="299.2" y1="48.5" x2="596" y2="48.5"/>
<polyline class="st8" points="599.1,48.5 605.1,48.5 605.1,54.5 "/>
<line class="st10" x1="605.1" y1="66.3" x2="605.1" y2="201.9"/>
<rect x="298.4" y="230.5" class="st7" width="215.1" height="8.9"/>
<rect x="294.5" y="313.2" class="st7" width="161.6" height="8.9"/>
<rect x="294.5" y="332.8" class="st7" width="161.6" height="8.9"/>
<rect x="294.5" y="352.3" class="st7" width="161.6" height="8.9"/>
<rect x="294.5" y="371.9" class="st7" width="161.6" height="8.9"/>
<rect x="294.5" y="391.4" class="st7" width="161.6" height="8.9"/>
<rect x="294.5" y="411" class="st7" width="161.6" height="8.9"/>
<rect x="294.5" y="430.5" class="st7" width="161.6" height="8.9"/>
<rect x="359.7" y="248.3" class="st7" width="92.4" height="8.9"/>
<path class="st0" d="M437.4,132.3c11.7,0,21.2-9.5,21.2-21.2s-9.5-21.2-21.2-21.2s-21.2,9.5-21.2,21.2l0,0
	C416.2,122.8,425.7,132.3,437.4,132.3L437.4,132.3z M437.4,94c9.5,0,17.1,7.7,17.1,17.1c0,9.5-7.7,17.1-17.1,17.1
	c-9.5,0-17.1-7.7-17.1-17.1C420.3,101.6,427.9,94,437.4,94L437.4,94L437.4,94z M439.1,122h-3.4c-0.6,0-1-0.5-1-1v-9.9H429
	c-0.6,0-1-0.5-1-1c0-0.3,0.1-0.5,0.3-0.7l8.5-8.5c0.4-0.4,1-0.4,1.4,0l8.5,8.5c0.4,0.4,0.4,1.1,0,1.5c-0.2,0.2-0.5,0.3-0.7,0.3h-5.7
	v9.9C440.1,121.6,439.7,122,439.1,122L439.1,122z"/>
<g class="st11">
	
		<linearGradient id="SVGID_00000131356668245600462910000008505895575084632973_" gradientUnits="userSpaceOnUse" x1="882.2" y1="592.35" x2="882.2" y2="592.11" gradientTransform="matrix(1 0 0 1 -133 -312.75)">
		<stop  offset="0" style="stop-color:#808080;stop-opacity:0.25"/>
		<stop  offset="0.54" style="stop-color:#808080;stop-opacity:0.12"/>
		<stop  offset="1" style="stop-color:#808080;stop-opacity:0.1"/>
	</linearGradient>
	<path style="fill:url(#SVGID_00000131356668245600462910000008505895575084632973_);" d="M749.1,279.6c0.1-0.1,0.2-0.3,0.2-0.3
		L749.1,279.6z"/>
</g>
<linearGradient id="SVGID_00000106844695543080216510000016109335572516564412_" gradientUnits="userSpaceOnUse" x1="668.85" y1="414.6" x2="668.85" y2="282.9" gradientTransform="matrix(1 0 0 1 0 -172)">
	<stop  offset="0" style="stop-color:#808080;stop-opacity:0.25"/>
	<stop  offset="0.54" style="stop-color:#808080;stop-opacity:0.12"/>
	<stop  offset="1" style="stop-color:#808080;stop-opacity:0.1"/>
</linearGradient>
<polygon style="fill:url(#SVGID_00000106844695543080216510000016109335572516564412_);" points="505.5,110.9 505.5,242.6 
	540.3,242.6 558.7,242.6 568.1,242.6 576.7,242.6 589.1,242.6 591.9,242.6 618.4,242.6 628.2,242.6 635.5,242.6 640.3,242.6 
	640.5,242.6 640.7,242.6 644.2,242.6 651.5,242.6 654.4,242.6 654.7,242.6 654.8,242.6 654.9,242.6 655.3,242.6 661.3,242.6 
	661.7,242.6 661.8,242.6 673.4,242.6 673.8,242.6 674.2,242.6 687.9,242.6 692,242.6 701.7,242.6 723.2,242.6 747.6,242.6 
	747.6,242.6 752.3,242.6 753.1,242.6 753.9,242.6 753.9,242.6 758.8,242.6 759.6,242.6 768.9,242.6 781.3,242.6 787.2,242.6 
	799.4,242.6 832.2,242.6 832.2,110.9 "/>
<linearGradient id="SVGID_00000138570904410889954810000018180181997597390995_" gradientUnits="userSpaceOnUse" x1="811.2504" y1="931.1497" x2="811.2504" y2="538.3218" gradientTransform="matrix(1 0 0 1 -133 -312.75)">
	<stop  offset="0" style="stop-color:#808080;stop-opacity:0.25"/>
	<stop  offset="0.54" style="stop-color:#808080;stop-opacity:0.12"/>
	<stop  offset="1" style="stop-color:#808080;stop-opacity:0.1"/>
</linearGradient>
<path style="fill:url(#SVGID_00000138570904410889954810000018180181997597390995_);" d="M774.7,292.1c0-3.1-0.7-6.1-2-8.9
	l-12.4-29.8c0,0-0.5,0.6-1.2,1.5c-0.9-7.6-4.4-22.1-17.4-23c-17.8-1.3-24,7.8-20.4,8.6s18.7,6.9,18.7,6.9l7,11.5
	c-0.1-0.1-0.3-0.2-0.4-0.3l0.3,1l-0.3-0.2l0.3,1l-0.3-0.2l6.8,27.9l-13.8,12.6c0,0-13.3,6.5-20,6c-1.3-0.1-2.5,0-3.8,0.1l0.5-0.3
	l4.4-2.9c3.4-2.3,7-4.7,8.7-8.3v-0.1c0.2-0.3,0.3-0.5,0.4-0.8c1.8-3.8,1.2-8.2,1.3-12.4c0.2-2.6,0.2-5.1,0.1-7.7
	c-0.3-2.4-1-4.8-2.1-7c-2-4.5-5.2-8.3-9.3-11c-4.2-2.7-9.3-3.7-14.2-2.7c-0.8,0.2-1.6,0.4-2.4,0.4c-1.6,0-2.9-1-4.4-1.6
	c-3.8-1.4-8.1-0.2-10.5,3c-1,1.3-1.5,2.9-2.5,4.2c-1.5,1.9-3.9,3.1-4.9,5.3l-0.1,0.2c-0.1,0.2-0.2,0.4-0.3,0.6c-1,2.2-0.3,4.7-0.5,7
	c-0.3,2.1-1,4.1-2,6c0.4-0.1,0.8-0.3,1.2-0.6c-2.4,5.2-2.5,11.2-0.3,16.4c-0.6,4.3-1.9,8.4-3.9,12.2l-0.1,0.1h-0.1l-0.4,0.3l0,0
	l-0.4,0.3c0.5-0.7,1-1.5,1.6-2.2c-0.9,1.1-5,5.1-13.6,0.2c-9.8-5.6-32.8-5.6-32.8-5.6l-23-10.3c0.4-7.3,2.4-35.6,7-37.1
	c-0.4,0.2-0.9,0.3-1.4,0.5l0,0l0.1-0.2l0.1-0.2l0.1-0.1l0.1-0.1l0.1-0.1l0.1-0.1l0.1-0.1l0.1-0.1l0.1-0.1l0.1-0.1l0.2-0.1
	c0,0-0.5,0.2-1.3,0.4l0.4-0.7c0.2-0.3,0.5-0.5,0.8-0.6c0,0-0.2,0.1-0.6,0.2l5.9-9.7c0,0,15.1-6,18.7-6.9s-2.7-9.9-20.4-8.6
	c-12,0.9-15.9,13.2-17.2,21.1c0-0.1-0.1-0.3-0.2-0.4l-17.7,45.8c0,0,0,0.2,0.1,0.6l-0.1,0.3c0,0,0,0.2,0.1,0.6l-0.1,0.3
	c0,0,1.3,9.9,11.1,13.8l36.8,22c0,0,16,9.5,16,33.2s3.1,61.2,3.1,61.2s0.6,0.4,1.7,1c-2.8,7.8-8.2,21.6-12,24
	c-5.3,3.5-18.7,33.2-18.7,33.2h0.4l-0.4,0.9c0,0,0.7,0,2,0l-10.9,21.1c0,0-3.5,9.5,0,15.5s2.7,18.5,2.7,18.5s7.1,20.3,12.9,29.8
	c2.9,4.8,3.5,10.7,3.3,15.4l-12.1,19.9c0,0-5.8,5.2-10.2,4.3c-2.1-0.4-4.2,2.2-3.9,4.9v0.2c0,0.1,0,0.1,0,0.2c0,0.1,0,0.1,0,0.1v0.2
	v0.1c0,0.1,0,0.2,0,0.3l0,0c0,0.1,0,0.2,0,0.3v0.1l0.1,0.2v0.1l0.1,0.2v0.1l0.1,0.3l0,0l0.2,0.3v0.1l0.1,0.2l0.1,0.1l0.1,0.2
	l0.1,0.1l0.2,0.2l0.1,0.1l0.3,0.3l0,0l0.3,0.2l0.1,0.1l0.2,0.2l0.1,0.1l0.2,0.1l0.1,0.1l0.3,0.2h0.1l0.4,0.2h0.1l0.3,0.1h0.2
	l0.3,0.1h0.2l0.4,0.1h0.2l0.6,0.1l0,0l0.6,0.1h0.2h0.4h0.2h0.5h1.9h0.6h0.3h0.6h0.3l0.6-0.1h0.3l0.9-0.1
	c18.2-2.6,39.5-12.1,39.5-12.1l0,0l0,0l0,0l0,0c0.1-1.3,0.2-2.5,0.2-3.8c0.1-5.2-0.8-15.5-8.4-18.3h-0.4c-1.9-5.7-3.4-13-2-19.2
	c2.7-12.5-7.5-35.3-7.5-43.1c0-1.7-2.2-5.6,2.2-11.2c2.1-2.6,6.8-7.1,11.3-12c-0.5,0.7-1,1.4-1.5,2c0.2,0.1,0.4,0.1,0.6,0.1
	c-0.2,0.2-0.4,0.5-0.6,0.7c0,0,5.9,1.9,10.7-6.5c0.3-0.5,0.6-1.1,0.9-1.7c4.9-10.3,17.3-25,23.5-24.1c5.7,0.8,18.6,11.9,21.3,19.7
	c0.2,0.6,0.4,1.3,0.4,1.9c0.9,7.8,12.4,8.6,12.4,8.6l-0.7-0.9h0.4c2.5,3.9,4.8,7.9,6.9,12.1c3.5,7.8,3.1,12.9,3.1,12.9
	c-9.8,19.8-6.2,31.9-6.2,44c0,3.3-0.4,6.6-1,9.8c-6.3,3.9-7.5,21.3-7.5,21.3l0.1,0.1l0,0v0.1v0.2v0.5c0,0,13.1,13.5,30.4,15.2
	l0.8,0.1h0.3h0.5h0.3h0.5h2.4h0.3h0.3h0.3h0.3h0.3h0.3h0.3h0.2h0.3h0.2l0.3-0.1h0.2l0.3-0.1h0.2l0.3-0.1h0.2l0.3-0.1l0.2-0.1
	l0.3-0.1l0.2-0.1l0.2-0.1l0.1-0.1l0.2-0.1l0.1-0.1l0.2-0.1l0.1-0.1l0.2-0.1l0.1-0.1l0.2-0.1l0.1-0.1l0.2-0.1l0.1-0.1l0.2-0.2h0.1
	l0.2-0.2h0.1l0.2-0.2l0,0l0.2-0.2l0,0l0.2-0.2l0,0l0.2-0.2l0,0l0.1-0.2l0,0l0.1-0.2l0,0l0.1-0.2l0,0c0.3-0.6,0.4-1.3,0.3-2
	c0.2-2-1.2-3.8-3.2-4.1c-0.1,0-0.3,0-0.4,0c-5.3,0-8-6-8-6l-9.4-22.2l-0.2-0.1c0.4-2.2,0.8-4.3,0.9-5.8c0.3-2.7,5.7-15.9,9.7-25.6
	c2.4-5.8,4-11.9,4.5-18.2c0.3-3.3,0.9-6.5,1.7-9.6c1.1-3.9,1-8.1-0.3-12c-1.1-3.3-1.8-6.8-2.1-10.3c-0.5-5.3-2.7-10.7-4.8-14.9h0.2
	l-0.3-0.9l0.3,0.1c0,0-8.9-28.9-13.3-32.8c-3.2-2.8-10.6-16-14.6-24.3c0.8-1.1,1.5-2.2,2.2-3.3l-0.1-0.7l0.1-0.2l-0.1-0.7l0.1-0.2
	c0,0-4.5-22.4-4.7-38.4c0-5.2,0.6-9.5,2-12c0,0,1.8-27.2,16-32.3l36.9-32.7c0,0,3.9-2.4,3.8-8.8
	C774.7,292.6,774.7,292.4,774.7,292.1z M673.8,308.5L673.8,308.5l0.4-0.6L673.8,308.5z M705.3,309.5c0,0-0.1,0.4-0.3,1.1
	c-0.6-1-1-2-1.3-3.1c1.2-0.3,2.3-0.6,3.4-1.1c0.7,0.8,1.6,1.4,2.6,1.7C708.2,308.4,706.7,308.9,705.3,309.5L705.3,309.5z
	 M714.2,491.1c1,1.5,2,3.1,3,4.7C716.2,494.4,715.1,492.7,714.2,491.1L714.2,491.1z"/>
<rect x="507.2" y="112.9" class="st7" width="322.6" height="126.6"/>
<g class="st15">
	<polygon class="st16" points="797.5,188.2 797.5,239.5 541.6,239.5 541.6,161.7 549.6,161.7 549.6,141.8 580.1,141.8 580.1,161.7 
		588.5,161.7 588.5,221.2 599.2,221.2 599.2,201.9 612,201.9 612,221.2 622.8,221.2 622.8,188.2 623.3,188.2 623.3,171 633.5,171 
		633.5,188.2 657,188.2 657,213.9 670.2,213.9 670.2,205.9 678.2,205.9 678.2,213.9 691.4,213.9 691.4,137.8 708.5,137.8 
		708.5,125.8 711.5,125.8 711.5,137.8 716.3,137.8 716.3,161.7 724.8,161.7 724.8,141.8 732.1,141.8 732.1,121.5 747.1,121.5 
		747.1,141.8 754.3,141.8 754.3,161.7 763.2,161.7 763.2,188.2 775.2,188.2 775.2,171 785.4,171 785.4,188.2 	"/>
	<rect x="546.6" y="167.8" class="st17" width="11.3" height="6.4"/>
	<rect x="571.8" y="167.8" class="st17" width="11.3" height="6.4"/>
	<rect x="546.6" y="180.4" class="st17" width="11.3" height="6.4"/>
	<rect x="571.8" y="180.4" class="st17" width="11.3" height="6.4"/>
	<rect x="546.6" y="193" class="st17" width="11.3" height="6.4"/>
	<rect x="571.8" y="193" class="st17" width="11.3" height="6.4"/>
	<rect x="546.6" y="205.6" class="st17" width="11.3" height="6.4"/>
	<rect x="571.8" y="205.6" class="st17" width="11.3" height="6.4"/>
	<rect x="546.6" y="218.2" class="st17" width="11.3" height="6.4"/>
	<rect x="571.8" y="218.2" class="st17" width="11.3" height="6.4"/>
	<rect x="546.6" y="230.8" class="st17" width="11.3" height="6.4"/>
	<rect x="571.8" y="230.8" class="st17" width="11.3" height="6.4"/>
	<rect x="592.5" y="227.6" class="st17" width="26.3" height="3.2"/>
	<rect x="592.5" y="232.4" class="st17" width="26.3" height="3.2"/>
	<rect x="592.5" y="237.2" class="st17" width="26.3" height="2.3"/>
	<rect x="661.1" y="229.2" class="st17" width="26.3" height="3.2"/>
	<rect x="661.1" y="234" class="st17" width="26.3" height="3.2"/>
	<rect x="661.1" y="238.8" class="st17" width="26.3" height="0.7"/>
	<rect x="628.4" y="194.4" class="st17" width="7.2" height="9.4"/>
	<rect x="644.2" y="194.4" class="st17" width="7.2" height="9.4"/>
	<rect x="628.4" y="209.4" class="st17" width="7.2" height="9.4"/>
	<rect x="644.2" y="209.4" class="st17" width="7.2" height="9.4"/>
	<rect x="628.4" y="224.4" class="st17" width="7.2" height="9.4"/>
	<rect x="644.2" y="224.4" class="st17" width="7.2" height="9.4"/>
	<rect x="628.4" y="239.4" class="st17" width="7.2" height="0.2"/>
	<rect x="644.2" y="239.4" class="st17" width="7.2" height="0.2"/>
	<rect x="691.4" y="144" class="st17" width="9.7" height="12.3"/>
	<rect x="691.4" y="161.7" class="st17" width="9.7" height="12.3"/>
	<rect x="691.4" y="179.4" class="st17" width="9.7" height="12.3"/>
	<rect x="691.4" y="197" class="st17" width="9.7" height="12.3"/>
	<rect x="691.4" y="214.7" class="st17" width="9.7" height="12.3"/>
	<rect x="691.4" y="232.4" class="st17" width="9.6" height="7.1"/>
	<rect x="721.8" y="169.2" class="st17" width="35.9" height="10.4"/>
	<rect x="721.9" y="191.7" class="st17" width="35.9" height="10.4"/>
	<rect x="722" y="214.2" class="st17" width="35.9" height="10.4"/>
	<polygon class="st17" points="752.5,239.5 757.4,239.5 758.1,239.5 758.1,238.4 758.1,237 758.1,236.7 758,236.7 753,236.7 
		750.8,236.7 722.2,236.7 722.2,239.5 746.3,239.5 750.9,239.5 751.7,239.5 	"/>
	<rect x="549.6" y="147.5" class="st17" width="4.8" height="10.2"/>
	<rect x="785.4" y="194.4" class="st17" width="12.1" height="15.5"/>
	<rect x="785.4" y="216.9" class="st17" width="12.1" height="15.5"/>
	<rect x="785.4" y="239.4" class="st17" width="12.1" height="0.2"/>
	<path class="st18" d="M612.5,134.2h-1.8c0.7,0.1,1.3-0.5,1.4-1.2c0.1-0.7-0.5-1.3-1.2-1.4c-0.1,0-0.1,0-0.2,0h-14.9
		c-0.7-0.1-1.3,0.5-1.4,1.2c-0.1,0.7,0.5,1.3,1.2,1.4c0.1,0,0.1,0,0.2,0h1.8c-0.7-0.1-1.3,0.5-1.4,1.2s0.5,1.3,1.2,1.4
		c0.1,0,0.1,0,0.2,0H595c-0.7-0.1-1.3,0.5-1.4,1.2c-0.1,0.7,0.5,1.3,1.2,1.4c0.1,0,0.1,0,0.2,0h14.9c0.7-0.1,1.2-0.7,1.2-1.4
		c0-0.6-0.6-1.1-1.2-1.2h2.6c0.7-0.1,1.2-0.7,1.2-1.4C613.6,134.8,613.1,134.3,612.5,134.2z"/>
	<path class="st18" d="M678.4,166.7h-1.8c0.7-0.1,1.2-0.7,1.2-1.4c0-0.6-0.6-1.1-1.2-1.2h-14.9c-0.7,0.1-1.2,0.7-1.2,1.4
		c0,0.6,0.6,1.1,1.2,1.2h1.8c-0.7-0.1-1.3,0.5-1.4,1.2s0.5,1.3,1.2,1.4c0.1,0,0.1,0,0.2,0h-2.6c-0.7,0.1-1.2,0.7-1.2,1.4
		c0,0.6,0.6,1.1,1.2,1.2h14.9c0.7-0.1,1.2-0.7,1.2-1.4c0-0.6-0.6-1.1-1.2-1.2h2.6c0.7,0.1,1.3-0.5,1.4-1.2s-0.5-1.3-1.2-1.4
		C678.5,166.7,678.5,166.7,678.4,166.7z"/>
	<path class="st18" d="M790.7,124.3h-1.8c0.7-0.1,1.2-0.7,1.2-1.4c0-0.6-0.6-1.1-1.2-1.2H774c-0.7-0.1-1.3,0.5-1.4,1.2
		c-0.1,0.7,0.5,1.3,1.2,1.4c0.1,0,0.1,0,0.2,0h1.8c-0.7-0.1-1.3,0.5-1.4,1.2c-0.1,0.7,0.5,1.3,1.2,1.4c0.1,0,0.1,0,0.2,0h-2.6
		c-0.7-0.1-1.3,0.5-1.4,1.2c-0.1,0.7,0.5,1.3,1.2,1.4c0.1,0,0.1,0,0.2,0h14.9c0.7-0.1,1.2-0.7,1.2-1.4c0-0.6-0.6-1.1-1.2-1.2h2.6
		c0.7-0.1,1.2-0.7,1.2-1.4C791.8,124.9,791.3,124.4,790.7,124.3L790.7,124.3z"/>
	
		<linearGradient id="SVGID_00000067915718386111819680000018380538448307449769_" gradientUnits="userSpaceOnUse" x1="780.773" y1="529.75" x2="781.0947" y2="529.75" gradientTransform="matrix(1 0 0 1 -133 -312.75)">
		<stop  offset="0" style="stop-color:#808080;stop-opacity:0.25"/>
		<stop  offset="0.54" style="stop-color:#808080;stop-opacity:0.12"/>
		<stop  offset="1" style="stop-color:#808080;stop-opacity:0.1"/>
	</linearGradient>
	<path style="fill:url(#SVGID_00000067915718386111819680000018380538448307449769_);" d="M648.1,216.9l-0.3,0.2
		C647.9,217.1,648,217,648.1,216.9z"/>
	
		<linearGradient id="SVGID_00000064353138050914833090000011181288641494462391_" gradientUnits="userSpaceOnUse" x1="781.0258" y1="530.05" x2="781.3398" y2="530.05" gradientTransform="matrix(1 0 0 1 -133 -312.75)">
		<stop  offset="0" style="stop-color:#808080;stop-opacity:0.25"/>
		<stop  offset="0.54" style="stop-color:#808080;stop-opacity:0.12"/>
		<stop  offset="1" style="stop-color:#808080;stop-opacity:0.1"/>
	</linearGradient>
	<path style="fill:url(#SVGID_00000064353138050914833090000011181288641494462391_);" d="M648.3,217.2l-0.3,0.2
		C648.1,217.3,648.2,217.3,648.3,217.2z"/>
	
		<linearGradient id="SVGID_00000172421348089218170660000000440277003705712059_" gradientUnits="userSpaceOnUse" x1="781.0258" y1="529.75" x2="781.3398" y2="529.75" gradientTransform="matrix(1 0 0 1 -133 -312.75)">
		<stop  offset="0" style="stop-color:#808080;stop-opacity:0.25"/>
		<stop  offset="0.54" style="stop-color:#808080;stop-opacity:0.12"/>
		<stop  offset="1" style="stop-color:#808080;stop-opacity:0.1"/>
	</linearGradient>
	<path style="fill:url(#SVGID_00000172421348089218170660000000440277003705712059_);" d="M648.3,216.9l-0.3,0.2
		C648.1,217.1,648.2,217,648.3,216.9z"/>
	
		<ellipse transform="matrix(0.9008 -0.4343 0.4343 0.9008 -29.0689 296.7361)" class="st22" cx="634.8" cy="212" rx="0.4" ry="0.5"/>
</g>
<path class="st23" d="M626.3,477.6l-12.8,25.5c0,0-3.4,9.3,0,15.3s2.5,18.3,2.5,18.3s6.8,20,12.3,29.3s2.1,23,2.1,23l22.1,2.5
	c0,0-8.5-16.6-6-28.9s-7.2-34.8-7.2-42.5c0-1.7-2.1-5.5,2.1-11s20.4-19.5,20-27.6L626.3,477.6z"/>
<path class="st23" d="M739,471.6c0,0,8.2,11.3,9.1,22.3c0.3,3.4,1,6.8,2,10.1c1.3,3.8,1.4,7.9,0.3,11.8c-0.8,3.1-1.4,6.3-1.7,9.5
	c-0.5,6.2-2,12.3-4.3,18c-3.9,9.6-9,22.6-9.3,25.3c-0.4,4.3-2.5,14.5-2.5,14.5l-17,6.4c0,0,5.1-12.3,5.1-24.2s-3.4-23.8,6-43.4
	c0,0,0.4-5.1-3-12.8s-16.6-27.6-16.6-27.6L739,471.6z"/>
<path class="st24" d="M711.5,486.8c-1.4,1.5,5.8,11.2,5.8,11.2s-11-0.8-11.9-8.5c-0.1-0.6-0.2-1.3-0.4-1.9
	c-2.6-7.7-14.9-18.6-20.4-19.4c-6-0.8-17.8,13.6-22.5,23.8c-0.3,0.6-0.5,1.1-0.8,1.6c-4.6,8.3-10.2,6.4-10.2,6.4
	c3-3.7,3.6-6.6,2.7-9c-3.7-9.2-31.6-8.9-31.6-8.9s12.8-29.3,17.8-32.7s13.2-28.9,13.2-28.9s60.8-6.8,61.2-3.8s12.3,26.4,16.6,30.2
	s12.8,32.3,12.8,32.3C729.2,475,713.3,485.4,711.5,486.8L711.5,486.8z"/>
<path class="st25" d="M711.5,485.9c-1.4,1.5,5.8,11.2,5.8,11.2s-11-0.8-11.9-8.5c-0.1-0.6-0.2-1.3-0.4-1.9
	c-2.6-7.7-14.9-18.6-20.4-19.4c-6-0.8-17.8,13.6-22.5,23.8c-0.3,0.6-0.5,1.1-0.8,1.6c-4.6,8.3-10.2,6.4-10.2,6.4
	c3-3.7,3.6-6.6,2.7-9c-3.7-9.2-31.6-8.9-31.6-8.9s12.8-29.3,17.8-32.7s13.2-28.9,13.2-28.9s60.8-6.8,61.2-3.8s12.3,26.4,16.6,30.2
	s12.8,32.3,12.8,32.3c-14.5-4.3-30.4,6.2-32.1,7.4L711.5,485.9z"/>
<path class="st24" d="M631.6,581.1L620,600.9c0,0-5.5,5.1-9.8,4.3s-8.5,11.9,8.9,9.3s37.8-11.9,37.8-11.9s1.9-17.2-7.9-21
	L631.6,581.1z"/>
<path class="st24" d="M734.5,574.3l9.1,21.5c0,0,2.5,6,7.7,6s6.8,10.6-9.8,8.9s-28.9-14.9-28.9-14.9s1.3-20.4,8.9-21.7
	C725.8,573.3,730.2,573.3,734.5,574.3z"/>
<path class="st26" d="M631.6,581.9L620,601.7c0,0-5.5,5.1-9.8,4.3s-8.5,11.9,8.9,9.3s37.8-11.9,37.8-11.9s1.9-17.2-7.9-21
	L631.6,581.9z"/>
<path class="st26" d="M734.5,575.1l9.1,21.5c0,0,2.5,6,7.7,6s6.8,10.6-9.8,8.9s-28.9-14.9-28.9-14.9s1.3-20.4,8.9-21.7
	C725.8,574.2,730.2,574.2,734.5,575.1z"/>
<g class="st11">
	<path d="M712.2,415.9c0.4,3,12.3,26.4,16.6,30.2c3.9,3.5,11.4,27.8,12.6,31.8c0.8,0.2,1.5,0.3,2.3,0.5c0,0-8.5-28.5-12.8-32.3
		s-16.2-27.2-16.6-30.2c-0.1-0.6-2.6-0.8-6.5-0.7C710.5,415.3,712.1,415.5,712.2,415.9z"/>
	<path d="M682.4,467.4c-6-0.8-17.8,13.6-22.5,23.8c-0.3,0.6-0.5,1.1-0.8,1.6c-2.6,4.8-5.6,6.2-7.7,6.5c1.4,0.3,6,0.5,9.8-6.5
		c0.3-0.5,0.5-1,0.8-1.6c4.3-9.4,14.7-22.3,20.9-23.7L682.4,467.4z"/>
	<path d="M711.5,485.9L711.5,485.9c1.4-1.1,12.1-8.1,23.7-8.5c-12.5-0.4-24.3,7.3-25.8,8.4l-0.1,0.1c-1.2,1.3,4.2,9,5.5,10.8
		c0.8,0.2,1.6,0.3,2.4,0.4C717.3,497.1,710.1,487.4,711.5,485.9z"/>
</g>
<path class="st23" d="M602.1,255.7c0,0,0-25.9,17-27.2s23,7.6,19.5,8.5s-17.8,6.8-17.8,6.8l-9.3,15.7L602.1,255.7z"/>
<path class="st23" d="M756,261.6c0,0,0-25.9-17-27.2s-23,7.6-19.5,8.5s17.8,6.8,17.8,6.8l9.3,15.7L756,261.6z"/>
<path class="st23" d="M679,288.4c0,0,1.3,17-9.3,26.8s24.7,22.1,24.7,22.1l15.7-18.7c0,0-12.8-7.6-6-20.8L679,288.4z"/>
<path class="st24" d="M675.6,308.4c0,0-3.8,6-13.2,0.4s-31.5-5.6-31.5-5.6l-22-10.2c0,0,1.7-36.6,6.8-38.3c0,0-10.2,4.3-13.2-4.3
	l-17,45.1c0,0,1.3,9.8,10.6,13.6l35.3,21.7c0,0,15.3,9.4,15.3,32.7s3,60.4,3,60.4s49.3,29.8,69.3-5.1c0,0-8.1-41.2-2.5-51.4
	c0,0,1.7-26.8,15.3-31.9l35.3-32.3c0,0,6.8-4.3,1.7-16.6l-11.9-29.3c0,0-7.2,10.2-13.2,5.1l6.8,28.9l-13.6,12.8c0,0-12.8,6.4-19.1,6
	s-13.6,2.5-13.6,2.5s-3,17-16.6,15.3C687.5,327.9,661.6,326.7,675.6,308.4z"/>
<path class="st24" d="M675.6,306.7c0,0-3.8,6-13.2,0.4s-31.5-5.5-31.5-5.5l-22.1-10.2c0,0,1.7-36.6,6.8-38.3c0,0-10.2,4.3-13.2-4.3
	l-17,45.1c0,0,1.3,9.8,10.6,13.6l35.3,21.7c0,0,15.3,9.4,15.3,32.7c0,23.4,3,60.4,3,60.4s49.3,29.7,69.3-5.1c0,0-8.1-41.2-2.5-51.4
	c0,0,1.7-26.8,15.3-31.9l35.3-32.4c0,0,6.8-4.3,1.7-16.6l-11.9-29.3c0,0-7.2,10.2-13.2,5.1l6.8,28.9l-13.6,12.8c0,0-12.8,6.4-19.1,6
	s-13.6,2.5-13.6,2.5s-3,17-16.6,15.3C687.5,326.3,661.6,325,675.6,306.7z"/>
<path class="st27" d="M675.6,307.6l-0.2,0.2L675.6,307.6z"/>
<path class="st27" d="M767,302.4l-35.3,32.3c-13.6,5.1-15.3,31.9-15.3,31.9c-5.5,10.2,2.5,51.4,2.5,51.4c-20,34.9-69.3,5.1-69.3,5.1
	s-0.1-1.2-0.3-3.4c-0.1-1.9-0.3-4.5-0.5-7.6c-0.3-4-0.6-8.8-0.9-14.1c-0.7-11.5-1.3-24.8-1.3-35.4c0-23.4-15.3-32.7-15.3-32.7
	L605,313.8l-8.8-5.4c-9.3-3.8-10.6-13.6-10.6-13.6l17-45.1c2.8,7.9,11.9,4.8,13,4.3c-5,2.3-6.7,38.2-6.7,38.2l22.1,10.2
	c0,0,22.1,0,31.5,5.5c8,4.7,11.9,1.1,12.9-0.1c-13.4,18,12.2,19.2,12.2,19.2c13.6,1.7,16.6-15.3,16.6-15.3s7.2-3,13.6-2.5
	s19.1-6,19.1-6l13.6-12.8l-6.8-28.9c6,5.1,13.2-5.1,13.2-5.1l11.9,29.3C773.8,298.2,767,302.4,767,302.4z"/>
<path class="st24" d="M679,290.1c0.1,2.7,0,5.4-0.4,8c3.8,9.5,14,14.8,24,12.5c-1-3.8-0.4-7.8,1.5-11.2L679,290.1z"/>
<circle class="st23" cx="698" cy="288.6" r="20.8"/>
<path class="st24" d="M697.6,276.8c-0.2,2.1-0.3,4.4,0.6,6.2c0.5,0.9,1.2,1.8,2,2.6l4.4,4.5c1.4,1.2,2.4,2.7,3.1,4.4
	c1.3,4.2-2.5,8.4-2.3,12.8c1.4,2.1,4,3.1,6.4,2.4c1-0.4,1.9-0.9,2.7-1.5l4.2-2.9c3.3-2.2,6.7-4.6,8.3-8.2c1.7-3.8,1.1-8.1,1.2-12.3
	c0.2-2.5,0.2-5,0.1-7.6c-0.3-2.4-1-4.8-2-6.9c-1.9-4.4-5-8.1-8.9-10.8c-4-2.7-8.9-3.6-13.6-2.6c-0.7,0.2-1.5,0.4-2.3,0.4
	c-1.5,0-2.8-1-4.2-1.6c-3.6-1.4-7.8-0.2-10.1,2.9c-0.9,1.3-1.5,2.9-2.4,4.1c-1.4,1.9-3.8,3.1-4.7,5.2s-0.3,4.6-0.5,6.9
	c-0.3,2.1-0.9,4.1-1.9,6c2.4-0.8,3.5-3.4,5-5.4c2.4-3,5.9-4.8,9.8-4.9c1.3-0.1,3.7-0.2,4.7,0.8C698.6,272.5,697.8,275.3,697.6,276.8
	z"/>
<path class="st28" d="M698,275.9c-0.2,2.1-0.3,4.4,0.6,6.2c0.5,0.9,1.2,1.8,2,2.6l4.4,4.5c1.4,1.2,2.4,2.7,3.1,4.4
	c1.3,4.2-2.5,8.4-2.3,12.8c1.4,2.1,4,3.1,6.4,2.4c1-0.4,1.9-0.9,2.8-1.5l4.2-2.9c3.3-2.2,6.7-4.6,8.3-8.2c1.7-3.8,1.1-8.1,1.2-12.3
	c0.2-2.5,0.2-5,0.1-7.6c-0.3-2.4-1-4.8-2-6.9c-1.9-4.4-5-8.1-8.9-10.8c-4-2.7-8.9-3.6-13.6-2.6c-0.7,0.2-1.5,0.4-2.3,0.4
	c-1.5,0-2.8-1-4.2-1.6c-3.6-1.4-7.8-0.2-10.1,2.9c-0.9,1.3-1.5,2.9-2.4,4.1c-1.4,1.9-3.8,3.1-4.7,5.2s-0.3,4.6-0.5,6.9
	c-0.3,2.1-0.9,4.1-1.9,6c2.4-0.8,3.5-3.4,5-5.4c2.4-3,5.9-4.8,9.8-4.9c1.3-0.1,3.7-0.2,4.7,0.8C699,271.7,698.2,274.4,698,275.9z"/>
<g class="st11">
	<path d="M675.5,307.8c0.1-0.1,0.2-0.2,0.2-0.2L675.5,307.8z"/>
	<path d="M747.4,263c-1.4,0-2.8-0.5-3.8-1.4l0.4,1.7C745.2,263.6,746.4,263.5,747.4,263z"/>
	<path d="M672.1,310c-10.7,16.4,13.3,17.5,13.3,17.5c1.8,0.3,3.7,0.1,5.5-0.4c-1.1,0.1-2.2,0.1-3.3,0c0,0-25.7-1.3-12.1-19.3
		C674.6,308.9,673.4,309.6,672.1,310z"/>
	<path d="M715.6,309.7c1.7,0,3.4-0.2,5.1-0.6c-1,0.2-2,0.2-3,0.2c-2.6-0.1-5.3,0.2-7.9,0.8C711.7,309.7,713.7,309.6,715.6,309.7z"/>
	<path d="M768.7,285.9l-11.9-29.3c-0.5,0.7-1,1.3-1.5,1.9l11.3,27.9c5.1,12.3-1.7,16.6-1.7,16.6l-35.3,32.3
		c-13.6,5.1-15.3,31.9-15.3,31.9c-5.5,10.2,2.5,51.4,2.5,51.4c-5.4,9.3-12.8,14-20.9,15.9c8.9-1.5,17.2-6.2,23-16.3
		c0,0-8.1-41.2-2.5-51.4c0,0,1.7-26.8,15.3-31.9l35.3-32.3C767,302.4,773.8,298.2,768.7,285.9z"/>
	<path d="M615.7,254c-0.9,0.3-1.8,0.6-2.7,0.8c-4.7,4.1-6.2,37.9-6.2,37.9l22.1,10.2c0,0,22.1,0,31.5,5.5c4.6,2.7,7.8,2.7,10,1.9
		c-2,0.1-4.6-0.4-7.8-2.3c-9.3-5.5-31.5-5.5-31.5-5.5l-22.2-10.2C608.9,292.3,610.6,255.7,615.7,254z"/>
	<path d="M612,254.9c-3.2,0.4-7.7,0-9.5-5.2l-1,2.6C604.3,256.3,609.4,255.6,612,254.9z"/>
</g>
<path class="st24" d="M648,398.2c-0.7-11.5-1.3-24.8-1.3-35.4c0-23.4-15.3-32.7-15.3-32.7L605,313.8c15.4,4,35.9,10.9,37.7,19
	c3,13.2,8.5,14.5,6.4,37C648.2,379.2,647.8,388.7,648,398.2z"/>
<path class="st24" d="M652,430.6c0,0,3.8,11.9-6.8,19.5"/>
<path class="st24" d="M711.5,430.6c0,0,1.3,8.9,6.4,12.3"/>
<path class="st24" d="M656.9,601.7c0,0-20.4,9.3-37.8,11.9c-8.8,1.3-12.1-1.3-12.6-4.2c-0.6,3.3,2,7.4,12.6,5.8
	c17.4-2.5,37.8-11.9,37.8-11.9c0.1-1.4,0.2-2.8,0.1-4.3C657,600.7,656.9,601.7,656.9,601.7z"/>
<path class="st24" d="M741.9,610.6c-16.6-1.7-28.9-14.9-28.9-14.9s0.6-10.1,3.7-16.5c-3.4,6.3-4.1,17.3-4.1,17.3
	s12.3,13.2,28.9,14.9c8.5,0.9,12.2-1.5,13.1-4C753.2,609.6,749.4,611.4,741.9,610.6z"/>
<path class="st29" d="M870,512.6c0,0-18.7-63.6,3.5-110.5c9.5-19.6,12.3-41.7,8.1-63c-2.1-10.1-5.1-20-8.9-29.6"/>
<path class="st30" d="M886.6,279.9c0,7.8-14.1,30.4-14.1,30.4s-14.1-22.6-14.1-30.4s6.3-14.1,14.1-14.1S886.6,272.1,886.6,279.9
	L886.6,279.9z"/>
<path class="st30" d="M909.9,323.1c-4.2,6.5-28.4,17.9-28.4,17.9s0.4-26.6,4.7-33.2c4.3-6.5,13.1-8.2,19.6-3.9
	C912.2,308.2,914,316.7,909.9,323.1z"/>
<path class="st30" d="M908.9,396.9c-7,3.5-33.5,1.1-33.5,1.1s13.8-22.8,20.8-26.3c6.9-3.7,15.4-1.1,19.1,5.8
	c3.7,6.9,1.1,15.4-5.8,19.1C909.3,396.8,909.1,396.8,908.9,396.9L908.9,396.9z"/>
<path class="st30" d="M895.6,452.6c-6.3,4.6-32.8,6.7-32.8,6.7s9.8-24.8,16-29.4c6.2-4.8,15-3.6,19.8,2.6s3.6,15-2.6,19.8
	C895.9,452.4,895.7,452.5,895.6,452.6z"/>
<path class="st30" d="M851.9,342.5c5.6,5.4,31.7,11.1,31.7,11.1s-6.4-25.9-12-31.3c-5.7-5.4-14.6-5.1-20,0.5
	C846.3,328.3,846.5,337.1,851.9,342.5L851.9,342.5z"/>
<path class="st30" d="M837.1,407.8c7,3.5,33.5,1.1,33.5,1.1s-13.8-22.8-20.8-26.3c-7-3.4-15.5-0.4-18.8,6.7
	C827.8,396.1,830.5,404.3,837.1,407.8L837.1,407.8z"/>
<path class="st30" d="M831.5,473.3c6.3,4.6,32.8,6.7,32.8,6.7s-9.8-24.8-16-29.4c-6.4-4.5-15.2-3-19.7,3.3
	C824.2,460.1,825.5,468.6,831.5,473.3z"/>
<path class="st29" d="M801.2,477.5c0,0-11.8-40,2.2-69.4c5.9-12.3,7.7-26.2,5.1-39.6c-1.3-6.4-3.2-12.6-5.6-18.6"/>
<path class="st30" d="M811.6,331.2c0,4.9-8.9,19.1-8.9,19.1s-8.9-14.2-8.9-19.1c0.2-4.9,4.3-8.7,9.2-8.6
	C807.7,322.8,811.4,326.5,811.6,331.2L811.6,331.2z"/>
<path class="st30" d="M826.3,358.3c-2.7,4.1-17.8,11.2-17.8,11.2s0.3-16.8,2.9-20.9c2.5-4.2,8-5.5,12.2-3s5.5,8,3,12.2
	C826.4,358,826.4,358.2,826.3,358.3z"/>
<path class="st30" d="M825.6,404.7c-4.4,2.2-21.1,0.7-21.1,0.7s8.7-14.3,13.1-16.5c4.4-2.1,9.7-0.2,11.8,4.2
	C831.5,397.4,829.8,402.5,825.6,404.7L825.6,404.7z"/>
<path class="st30" d="M817.2,439.7c-3.9,2.9-20.7,4.2-20.7,4.2s6.2-15.6,10.1-18.5c4-2.8,9.6-1.8,12.4,2.2
	C821.7,431.5,820.9,436.8,817.2,439.7z"/>
<path class="st30" d="M789.8,370.5c3.5,3.4,19.9,7,19.9,7s-4-16.3-7.5-19.7c-3.4-3.5-9-3.6-12.6-0.2s-3.6,9-0.2,12.6
	C789.5,370.3,789.6,370.4,789.8,370.5L789.8,370.5z"/>
<path class="st30" d="M780.5,411.6c4.4,2.2,21.1,0.7,21.1,0.7s-8.7-14.3-13.1-16.5c-4.4-2.1-9.7-0.2-11.8,4.2
	C774.6,404.2,776.3,409.3,780.5,411.6L780.5,411.6z"/>
<path class="st30" d="M776.9,452.7c3.9,2.9,20.7,4.2,20.7,4.2s-6.2-15.6-10.1-18.5c-3.9-3-9.4-2.4-12.5,1.5s-2.4,9.4,1.5,12.5
	C776.6,452.5,776.8,452.6,776.9,452.7z"/>
<path class="st31" d="M267,48.1v417.6H152.9c-9.6,0-17.5-18.6-17.5-41.6v-376C135.4,48.1,267,48.1,267,48.1z"/>
<path class="st30" d="M148.4,353.3c11,40.2-35.9,154.8-35.9,154.8s-98.7-74.8-109.7-115C-8.5,352.9,14.9,311.3,55,300
	c40.2-11.2,81.8,12.2,93.1,52.3C148.2,352.7,148.3,353,148.4,353.3z"/>
<path class="st24" d="M148.4,353.3c11,40.2-35.9,154.8-35.9,154.8s-98.7-74.8-109.7-115C-8.5,352.9,14.9,311.3,55,300
	c40.2-11.2,81.8,12.2,93.1,52.3C148.2,352.7,148.3,353,148.4,353.3z"/>
<path class="st32" d="M55,300.4c0,0,61.5,92.8,56.8,207.7"/>
<path class="st30" d="M164.1,426.8c0,0-55.7-30.3-48.7,81.6c0,0,46.5-1.7,63-39.6c6.7-15.3,0.9-33.1-13.5-41.6L164.1,426.8z"/>
<path class="st32" d="M165.3,426.5c0,0-7.2,58.1-49.6,81.4"/>
<g>
	<g>
		<text transform="matrix(0.9923 0 0 1 181.3213 91.436)" class="st33 st34 st35">take control of your website</text>
	</g>
	<text transform="matrix(1 0 0 1 176.1747 86.6291)" class="st33 st36 st37">THE</text>
	<text transform="matrix(1 0 0 1 195.5747 86.6291)" class="st33 st38 st37"> KITCHEN</text>
	<g>
		<rect x="158.2" y="67.9" class="st33" width="5.1" height="26.1"/>
		<g>
			<polygon class="st33" points="168.9,83.4 176.4,75.2 170.6,75.2 163.3,83.6 163.3,79.5 163.3,67.9 158.2,67.9 163.3,88.1 
				165.5,86.4 170.9,94 176.8,94 			"/>
			<polygon class="st39" points="158.2,90.1 163.3,94 163.3,88.1 158.2,67.9 			"/>
		</g>
	</g>
</g>
<g>
	<rect x="150.7" y="133.3" class="st7" width="100.9" height="2.9"/>
	<rect x="150.7" y="139.8" class="st7" width="100.9" height="2.9"/>
	<rect x="150.7" y="146.3" class="st7" width="100.9" height="2.9"/>
	<rect x="150.7" y="152.8" class="st7" width="100.9" height="2.9"/>
	<rect x="150.7" y="159.1" class="st7" width="100.9" height="2.9"/>
	<rect x="150.7" y="165.6" class="st7" width="100.9" height="2.9"/>
	<rect x="150.7" y="172.1" class="st7" width="100.9" height="2.9"/>
	<rect x="150.7" y="178.6" class="st7" width="100.9" height="2.9"/>
</g>
<g>
	<rect x="151.7" y="207.1" class="st7" width="100.9" height="2.9"/>
	<rect x="151.7" y="213.6" class="st7" width="100.9" height="2.9"/>
	<rect x="151.7" y="220.1" class="st7" width="100.9" height="2.9"/>
	<rect x="151.7" y="226.6" class="st7" width="100.9" height="2.9"/>
	<rect x="151.7" y="232.9" class="st7" width="100.9" height="2.9"/>
	<rect x="151.7" y="239.4" class="st7" width="100.9" height="2.9"/>
	<rect x="151.7" y="245.9" class="st7" width="100.9" height="2.9"/>
	<rect x="151.7" y="252.4" class="st7" width="100.9" height="2.9"/>
</g>
<g class="st40">
	<rect x="483.6" y="391.1" class="st41" width="14.4" height="47.7"/>
	<rect x="511.5" y="356.9" class="st41" width="14.4" height="81.9"/>
	<rect x="539.4" y="322.7" class="st41" width="14.4" height="116.1"/>
	<rect x="567.4" y="333.8" class="st41" width="14.4" height="105"/>
	<rect x="595.3" y="366.6" class="st41" width="14.4" height="72.2"/>
</g>
</svg>
