<?xml version="1.0" encoding="utf-8"?>
<!-- Generator: Adobe Illustrator 23.0.6, SVG Export Plug-In . SVG Version: 6.00 Build 0)  -->
<svg version="1.1" id="fc836297-f37e-43a2-86b4-5406f4a63596"
	 xmlns="http://www.w3.org/2000/svg" xmlns:xlink="http://www.w3.org/1999/xlink" x="0px" y="0px" viewBox="0 0 1130.1 738.1"
	 style="enable-background:new 0 0 1130.1 738.1;" xml:space="preserve">
<style type="text/css">
	.st0{fill:#FFFFFF;enable-background:new    ;}
</style>
<title>pair programming</title>
<path class="st0" d="M584.5,132.8c-71.4,12.1-142.6,6.9-211.2-0.6s-137-17.3-208.4-14.4c-45.9,1.9-97.1,11-129.1,37.4
	C4.9,180.6,0.1,215,0,246c0,23.3,2,47.4,18.5,66C30,324.8,47.7,334.1,61,346c46.3,41.3,32.2,106.3,1.8,161.6
	c-14.3,25.9-31.7,51.5-41.4,78s-11,55,6.4,76.7c17.2,21.5,50.5,33.6,85.3,39.8c70.5,12.7,149.1,4.8,225.2-5.9
	c168.3-23.8,334.8-60.9,501-98c61.5-13.7,123.3-27.5,182.5-47.2c32.9-11,66.4-24.7,87.7-46c27-27,27.7-63.9,1.7-86
	c-43.7-37-142.5-28.8-176.3-71.1c-18.6-23.3-10.5-54.9,4.3-82.9c31.7-59.9,93-119.1,85.1-178.9c-5.5-41-47.3-74.9-103.3-83.8
	C862.3-7,786.8,10.6,753,51.9C718,94.5,647.5,122.1,584.5,132.8z"/>
</svg>
